<svg width="1220" height="1260" viewBox="0 0 1220 1260" fill="none" xmlns="http://www.w3.org/2000/svg">
<path d="M1220 630C1220 977.939 946.894 1260 610 1260C273.106 1260 0 977.939 0 630C0 282.061 273.106 0 610 0C946.894 0 1220 282.061 1220 630Z" fill="#059669"/>
<path fill-rule="evenodd" clip-rule="evenodd" d="M476.097 681.293C535.889 681.293 584.237 729.051 584.237 787.812C584.237 846.572 535.889 894.33 476.097 894.33C416.304 894.33 367.956 846.572 367.956 787.812C367.956 729.051 416.304 681.293 476.097 681.293ZM493.255 724.228C457.205 724.228 427.865 752.701 427.864 787.964C427.864 823.227 457.204 851.702 493.255 851.702L494.099 851.697C529.762 851.257 558.644 822.951 558.644 787.964C558.644 786.257 558.574 784.565 558.438 782.892C557.892 776.144 553.661 771.667 548.351 768.981C543.105 766.328 536.599 765.282 530.706 765.282C521.348 765.282 512.969 762.387 506.982 757.822C500.998 753.26 497.512 747.135 497.512 740.565C497.512 738.147 497.98 735.808 498.861 733.59C499.659 731.582 499.498 729.342 498.576 727.559C497.631 725.73 495.774 724.228 493.255 724.228Z" fill="white"/>
<path fill-rule="evenodd" clip-rule="evenodd" d="M743.184 681.293C802.976 681.293 851.324 729.051 851.324 787.812C851.324 846.572 802.976 894.33 743.184 894.33C683.391 894.33 635.043 846.572 635.043 787.812C635.043 729.051 683.391 681.293 743.184 681.293ZM725.495 724.228C689.445 724.228 660.105 752.701 660.104 787.964C660.104 823.227 689.445 851.702 725.495 851.702L726.338 851.697C762.001 851.257 790.884 822.952 790.884 787.964C790.884 786.161 790.806 784.374 790.655 782.608C790.079 775.869 785.838 771.407 780.525 768.732C775.277 766.09 768.777 765.052 762.889 765.052C753.531 765.052 745.151 762.157 739.165 757.593C733.181 753.03 729.694 746.906 729.694 740.336C729.694 737.932 730.158 735.606 731.029 733.399C731.809 731.426 731.642 729.23 730.729 727.484C729.823 725.75 728.078 724.319 725.725 724.231L725.495 724.228Z" fill="white"/>
<path fill-rule="evenodd" clip-rule="evenodd" d="M610.739 250C629.805 250.11 646.185 256.862 659.879 270.245C673.685 283.743 680.589 299.898 680.589 318.709V561.599C680.589 585.681 700.106 605.204 724.181 605.204C748.628 605.204 768.294 585.095 767.76 560.646L762.474 318.709C762.474 299.274 769.097 282.962 782.342 269.777C795.588 256.593 812.027 250 831.659 250C850.867 250 867.425 256.592 881.333 269.777C895.239 282.962 902.194 299.274 902.194 318.709L930 781.071C930 858.936 905.416 925.91 856.249 981.996C812.338 1032.09 760.928 1065.8 702.019 1083.14C689.895 1086.71 681.455 1097.88 682.585 1110.47C685.057 1138.02 689.544 1189.66 694.466 1254.01C666.858 1257.96 638.66 1260 610 1260C581.682 1260 553.815 1258 526.522 1254.15C531.449 1189.73 535.941 1138.04 538.415 1110.47C539.545 1097.88 531.106 1086.71 518.982 1083.14C460.073 1065.8 408.662 1032.09 364.751 981.996C315.584 925.91 291 858.936 291 781.071L318.807 318.709C318.807 299.274 325.762 282.962 339.668 269.777C353.576 256.593 370.133 250 389.341 250C408.973 250 425.413 256.592 438.659 269.777C451.904 282.962 458.526 299.274 458.526 318.709L453.24 560.646C452.706 585.095 472.373 605.204 496.82 605.204C520.895 605.204 540.411 585.681 540.411 561.599V318.709C540.411 299.898 547.316 283.743 561.122 270.245C574.816 256.862 591.196 250.11 610.262 250H610.739ZM693.527 948.594C686.46 941.485 674.969 941.455 667.863 948.524C654.711 961.609 633.577 969.144 610.906 969.144C588.595 969.143 567.757 961.844 554.561 949.129L553.909 948.491L553.882 948.465L553.854 948.439L553.363 947.974L553.315 947.928L553.266 947.883L552.928 947.587C545.891 941.569 535.359 941.806 528.603 948.277L528.278 948.596C521.433 955.482 521.25 966.48 527.707 973.59L527.751 973.639L527.797 973.686L528.265 974.175L528.32 974.232L528.377 974.289L529.341 975.233L529.355 975.247L529.37 975.262C550.894 996.015 581.643 1005.45 610.906 1005.45C640.63 1005.45 671.895 995.714 693.457 974.261C700.561 967.192 700.594 955.701 693.527 948.594ZM477.457 639.5C394.997 639.5 328 705.643 328 787.418C328 869.193 394.997 935.336 477.457 935.336L478.885 935.329C536.801 934.792 586.87 901.644 611.2 853.505C635.622 902.121 686.307 935.5 744.838 935.5L746.764 935.488C828.177 934.468 894 868.836 894 787.846L893.987 785.936C892.962 705.826 827.536 641.216 746.764 640.203L744.838 640.191C686.48 640.191 635.92 673.375 611.416 721.758C587.167 673.388 536.974 640.047 478.889 639.507L477.457 639.5Z" fill="white"/>
</svg>
