<svg width="5442" height="1260" viewBox="0 0 5442 1260" fill="none" xmlns="http://www.w3.org/2000/svg">
<path d="M1220 630C1220 977.939 946.894 1260 610 1260C273.106 1260 0 977.939 0 630C0 282.061 273.106 0 610 0C946.894 0 1220 282.061 1220 630Z" fill="#059669"/>
<path fill-rule="evenodd" clip-rule="evenodd" d="M476.097 681.293C535.889 681.293 584.237 729.051 584.237 787.812C584.237 846.572 535.889 894.33 476.097 894.33C416.304 894.33 367.956 846.572 367.956 787.812C367.956 729.051 416.304 681.293 476.097 681.293ZM493.255 724.228C457.205 724.228 427.865 752.701 427.864 787.964C427.864 823.227 457.204 851.702 493.255 851.702L494.099 851.697C529.762 851.257 558.644 822.951 558.644 787.964C558.644 786.257 558.574 784.565 558.438 782.892C557.892 776.144 553.661 771.667 548.351 768.981C543.105 766.328 536.599 765.282 530.706 765.282C521.348 765.282 512.969 762.387 506.982 757.822C500.998 753.26 497.512 747.135 497.512 740.565C497.512 738.147 497.98 735.808 498.861 733.59C499.659 731.582 499.498 729.342 498.576 727.559C497.631 725.73 495.774 724.228 493.255 724.228Z" fill="white"/>
<path fill-rule="evenodd" clip-rule="evenodd" d="M743.184 681.293C802.976 681.293 851.324 729.051 851.324 787.812C851.324 846.572 802.976 894.33 743.184 894.33C683.391 894.33 635.043 846.572 635.043 787.812C635.043 729.051 683.391 681.293 743.184 681.293ZM725.495 724.228C689.445 724.228 660.105 752.701 660.104 787.964C660.104 823.227 689.445 851.702 725.495 851.702L726.338 851.697C762.001 851.257 790.884 822.952 790.884 787.964C790.884 786.161 790.806 784.374 790.655 782.608C790.079 775.869 785.838 771.407 780.525 768.732C775.277 766.09 768.777 765.052 762.889 765.052C753.531 765.052 745.151 762.157 739.165 757.593C733.181 753.03 729.694 746.906 729.694 740.336C729.694 737.932 730.158 735.606 731.029 733.399C731.809 731.426 731.642 729.23 730.729 727.484C729.823 725.75 728.078 724.319 725.725 724.231L725.495 724.228Z" fill="white"/>
<path fill-rule="evenodd" clip-rule="evenodd" d="M610.739 250C629.805 250.11 646.185 256.862 659.879 270.245C673.685 283.743 680.589 299.898 680.589 318.709V561.599C680.589 585.681 700.106 605.204 724.181 605.204C748.628 605.204 768.294 585.095 767.76 560.646L762.474 318.709C762.474 299.274 769.097 282.962 782.342 269.777C795.588 256.593 812.027 250 831.659 250C850.867 250 867.425 256.592 881.333 269.777C895.239 282.962 902.194 299.274 902.194 318.709L930 781.071C930 858.936 905.416 925.91 856.249 981.996C812.338 1032.09 760.928 1065.8 702.019 1083.14C689.895 1086.71 681.455 1097.88 682.585 1110.47C685.057 1138.02 689.544 1189.66 694.466 1254.01C666.858 1257.96 638.66 1260 610 1260C581.682 1260 553.815 1258 526.522 1254.15C531.449 1189.73 535.941 1138.04 538.415 1110.47C539.545 1097.88 531.106 1086.71 518.982 1083.14C460.073 1065.8 408.662 1032.09 364.751 981.996C315.584 925.91 291 858.936 291 781.071L318.807 318.709C318.807 299.274 325.762 282.962 339.668 269.777C353.576 256.593 370.133 250 389.341 250C408.973 250 425.413 256.592 438.659 269.777C451.904 282.962 458.526 299.274 458.526 318.709L453.24 560.646C452.706 585.095 472.373 605.204 496.82 605.204C520.895 605.204 540.411 585.681 540.411 561.599V318.709C540.411 299.898 547.316 283.743 561.122 270.245C574.816 256.862 591.196 250.11 610.262 250H610.739ZM693.527 948.594C686.46 941.485 674.969 941.455 667.863 948.524C654.711 961.609 633.577 969.144 610.906 969.144C588.595 969.143 567.757 961.844 554.561 949.129L553.909 948.491L553.882 948.465L553.854 948.439L553.363 947.974L553.315 947.928L553.266 947.883L552.928 947.587C545.891 941.569 535.359 941.806 528.603 948.277L528.278 948.596C521.433 955.482 521.25 966.48 527.707 973.59L527.751 973.639L527.797 973.686L528.265 974.175L528.32 974.232L528.377 974.289L529.341 975.233L529.355 975.247L529.37 975.262C550.894 996.015 581.643 1005.45 610.906 1005.45C640.63 1005.45 671.895 995.714 693.457 974.261C700.561 967.192 700.594 955.701 693.527 948.594ZM477.457 639.5C394.997 639.5 328 705.643 328 787.418C328 869.193 394.997 935.336 477.457 935.336L478.885 935.329C536.801 934.792 586.87 901.644 611.2 853.505C635.622 902.121 686.307 935.5 744.838 935.5L746.764 935.488C828.177 934.468 894 868.836 894 787.846L893.987 785.936C892.962 705.826 827.536 641.216 746.764 640.203L744.838 640.191C686.48 640.191 635.92 673.375 611.416 721.758C587.167 673.388 536.974 640.047 478.889 639.507L477.457 639.5Z" fill="white"/>
<path d="M1768.71 1099C1679.37 1099 1608.72 1070.58 1556.74 1013.73C1505.58 956.879 1480 873.636 1480 764C1480 690.909 1490.56 632.842 1511.67 589.8C1532.79 546.758 1562.02 516.303 1599.38 498.436C1637.55 479.758 1680.59 470.418 1728.51 470.418C1771.55 470.418 1806.47 475.697 1833.27 486.255C1860.07 496.812 1881.18 514.679 1896.61 539.855C1890.93 522.8 1886.46 506.964 1883.21 492.345C1880.78 476.915 1878.75 459.049 1877.12 438.745C1876.31 418.442 1875.9 392.455 1875.9 360.782V256.018C1875.9 192.673 1903.11 161 1957.52 161C2016.81 161 2046.45 192.673 2046.45 256.018V771.309C2046.45 880.946 2022.08 962.97 1973.36 1017.38C1924.63 1071.79 1856.41 1099 1768.71 1099ZM1760.18 952.818C1794.29 952.818 1820.68 940.636 1839.36 916.273C1858.85 891.909 1868.59 846.43 1868.59 779.836C1868.59 735.17 1864.13 701.467 1855.2 678.727C1847.07 655.176 1834.89 638.933 1818.65 630C1802.41 621.067 1782.92 616.6 1760.18 616.6C1737.44 616.6 1717.95 621.067 1701.71 630C1685.46 638.933 1672.88 655.176 1663.94 678.727C1655.82 701.467 1651.76 735.17 1651.76 779.836C1651.76 846.43 1661.1 891.909 1679.78 916.273C1699.27 940.636 1726.07 952.818 1760.18 952.818Z" fill="#059669"/>
<path d="M2478.37 1099C2397.16 1099 2333.41 1085.6 2287.12 1058.8C2241.64 1032 2209.16 995.049 2189.67 947.945C2170.99 900.842 2161.65 846.836 2161.65 785.927C2161.65 673.855 2186.42 593.455 2235.96 544.727C2285.5 495.188 2352.09 470.418 2435.74 470.418C2486.09 470.418 2530.75 478.945 2569.74 496C2608.72 513.055 2639.17 537.418 2661.1 569.091C2683.02 599.952 2693.99 637.715 2693.99 682.382C2693.99 812.321 2601.41 877.291 2416.25 877.291H2345.59C2352.09 902.467 2362.65 922.364 2377.27 936.982C2392.7 950.788 2419.49 957.691 2457.66 957.691C2478.78 957.691 2495.83 956.473 2508.83 954.036C2521.82 951.6 2534 949.164 2545.37 946.727C2557.55 944.291 2571.36 943.073 2586.79 943.073C2608.72 943.073 2626.18 947.133 2639.17 955.255C2652.16 962.564 2658.66 977.994 2658.66 1001.55C2658.66 1034.84 2644.04 1059.61 2614.81 1075.85C2586.38 1091.28 2540.91 1099 2478.37 1099ZM2337.07 787.145C2343.56 778.212 2350.87 772.527 2358.99 770.091C2367.11 766.842 2379.7 765.218 2396.76 765.218C2444.67 765.218 2477.56 760.752 2495.43 751.818C2514.11 742.073 2523.45 725.018 2523.45 700.655C2523.45 669.794 2514.92 646.242 2497.86 630C2480.81 612.945 2459.29 604.418 2433.3 604.418C2403.25 604.418 2379.7 617.006 2362.65 642.182C2345.59 667.358 2337.07 715.679 2337.07 787.145Z" fill="#059669"/>
<path d="M2980.31 1017.38C2980.31 1071.79 2951.89 1099 2895.04 1099C2867.43 1099 2845.5 1092.1 2829.26 1078.29C2813.02 1064.48 2804.9 1044.18 2804.9 1017.38V256.018C2804.9 226.782 2811.4 203.636 2824.39 186.582C2838.2 169.527 2860.93 161 2892.61 161C2924.28 161 2946.61 169.527 2959.61 186.582C2973.41 203.636 2980.31 226.782 2980.31 256.018V1017.38Z" fill="#059669"/>
<path d="M3224.45 365.655C3194.4 365.655 3169.23 355.909 3148.93 336.418C3128.62 316.927 3118.47 292.97 3118.47 264.545C3118.47 234.497 3128.62 209.727 3148.93 190.236C3169.23 170.745 3194.4 161 3224.45 161C3255.31 161 3280.49 170.745 3299.98 190.236C3320.28 209.727 3330.43 234.497 3330.43 264.545C3330.43 292.97 3320.28 316.927 3299.98 336.418C3280.49 355.909 3255.31 365.655 3224.45 365.655ZM3312.16 1017.38C3312.16 1071.79 3283.74 1099 3226.89 1099C3199.28 1099 3177.35 1092.5 3161.11 1079.51C3144.87 1065.7 3136.74 1044.99 3136.74 1017.38V553.255C3136.74 527.267 3143.24 506.964 3156.23 492.345C3170.04 477.727 3192.78 470.418 3224.45 470.418C3256.12 470.418 3278.46 477.727 3291.45 492.345C3305.26 506.964 3312.16 527.267 3312.16 553.255V1017.38Z" fill="#059669"/>
<path d="M3673.64 1099C3657.4 1099 3640.34 1095.75 3622.48 1089.25C3605.42 1081.95 3589.18 1069.36 3573.75 1051.49C3558.32 1032.81 3544.92 1006.01 3533.55 971.091L3405.64 570.309C3399.96 551.63 3400.77 534.576 3408.08 519.145C3415.39 502.903 3427.17 490.315 3443.41 481.382C3459.65 471.636 3477.52 466.764 3497.01 466.764C3514.87 466.764 3531.12 471.23 3545.73 480.164C3561.16 489.097 3571.72 502.903 3577.41 521.582L3696.79 924.8C3727.65 873.636 3747.95 822.879 3757.69 772.527C3768.25 721.364 3773.53 672.23 3773.53 625.127C3773.53 610.509 3773.12 596.297 3772.31 582.491C3771.5 567.873 3771.09 554.067 3771.09 541.073C3771.09 517.521 3780.43 499.248 3799.11 486.255C3818.6 473.261 3840.12 466.764 3863.68 466.764C3912.4 466.764 3940.42 489.909 3947.73 536.2C3949.35 544.321 3950.57 555.285 3951.38 569.091C3952.2 582.085 3952.6 597.109 3952.6 614.164C3952.6 641.776 3949.76 674.261 3944.07 711.618C3939.2 748.164 3929.46 787.552 3914.84 829.782C3901.03 871.2 3879.92 913.836 3851.49 957.691C3826.32 996.673 3803.58 1026.32 3783.28 1046.62C3763.79 1066.92 3745.11 1080.73 3727.24 1088.04C3709.37 1095.35 3691.51 1099 3673.64 1099Z" fill="#059669"/>
<path d="M4157.11 365.655C4127.06 365.655 4101.89 355.909 4081.58 336.418C4061.28 316.927 4051.13 292.97 4051.13 264.545C4051.13 234.497 4061.28 209.727 4081.58 190.236C4101.89 170.745 4127.06 161 4157.11 161C4187.97 161 4213.15 170.745 4232.64 190.236C4252.94 209.727 4263.09 234.497 4263.09 264.545C4263.09 292.97 4252.94 316.927 4232.64 336.418C4213.15 355.909 4187.97 365.655 4157.11 365.655ZM4244.82 1017.38C4244.82 1071.79 4216.39 1099 4159.55 1099C4131.94 1099 4110.01 1092.5 4093.77 1079.51C4077.52 1065.7 4069.4 1044.99 4069.4 1017.38V553.255C4069.4 527.267 4075.9 506.964 4088.89 492.345C4102.7 477.727 4125.44 470.418 4157.11 470.418C4188.78 470.418 4211.12 477.727 4224.11 492.345C4237.92 506.964 4244.82 527.267 4244.82 553.255V1017.38Z" fill="#059669"/>
<path d="M4441.82 1089.25C4421.52 1089.25 4404.46 1081.13 4390.66 1064.89C4377.66 1048.65 4371.17 1028.75 4371.17 1005.2C4371.17 989.77 4374.82 975.964 4382.13 963.782L4569.73 670.2C4578.66 656.394 4585.97 646.648 4591.65 640.964C4597.34 635.279 4603.43 631.218 4609.93 628.782H4439.38C4384.97 628.782 4357.77 604.012 4357.77 554.473C4357.77 504.933 4384.97 480.164 4439.38 480.164H4740.27C4762.2 480.164 4780.47 488.285 4795.09 504.527C4809.7 520.77 4817.01 540.667 4817.01 564.218C4817.01 579.648 4813.36 593.455 4806.05 605.636L4607.49 901.655C4592.87 924.394 4576.22 937.388 4557.54 940.636H4764.63C4819.04 940.636 4846.25 966.218 4846.25 1017.38C4846.25 1065.3 4819.04 1089.25 4764.63 1089.25H4441.82Z" fill="#059669"/>
<path d="M5226.38 1099C5145.17 1099 5081.42 1085.6 5035.13 1058.8C4989.65 1032 4957.17 995.049 4937.68 947.945C4919 900.842 4909.66 846.836 4909.66 785.927C4909.66 673.855 4934.43 593.455 4983.97 544.727C5033.51 495.188 5100.1 470.418 5183.75 470.418C5234.1 470.418 5278.77 478.945 5317.75 496C5356.73 513.055 5387.18 537.418 5409.11 569.091C5431.04 599.952 5442 637.715 5442 682.382C5442 812.321 5349.42 877.291 5164.26 877.291H5093.6C5100.1 902.467 5110.66 922.364 5125.28 936.982C5140.71 950.788 5167.51 957.691 5205.68 957.691C5226.79 957.691 5243.85 956.473 5256.84 954.036C5269.83 951.6 5282.01 949.164 5293.38 946.727C5305.57 944.291 5319.37 943.073 5334.8 943.073C5356.73 943.073 5374.19 947.133 5387.18 955.255C5400.18 962.564 5406.67 977.994 5406.67 1001.55C5406.67 1034.84 5392.06 1059.61 5362.82 1075.85C5334.4 1091.28 5288.92 1099 5226.38 1099ZM5085.08 787.145C5091.57 778.212 5098.88 772.527 5107 770.091C5115.13 766.842 5127.71 765.218 5144.77 765.218C5192.68 765.218 5225.57 760.752 5243.44 751.818C5262.12 742.073 5271.46 725.018 5271.46 700.655C5271.46 669.794 5262.93 646.242 5245.88 630C5228.82 612.945 5207.3 604.418 5181.31 604.418C5151.26 604.418 5127.71 617.006 5110.66 642.182C5093.6 667.358 5085.08 715.679 5085.08 787.145Z" fill="#059669"/>
</svg>
