<svg width="5482" height="1260" viewBox="0 0 5482 1260" fill="none" xmlns="http://www.w3.org/2000/svg">
<path d="M1260 630C1260 977.939 977.939 1260 630 1260C282.061 1260 0 977.939 0 630C0 282.061 282.061 0 630 0C977.939 0 1260 282.061 1260 630Z" fill="#059669"/>
<path fill-rule="evenodd" clip-rule="evenodd" d="M495.097 681.293C554.889 681.293 603.237 729.051 603.237 787.812C603.237 846.572 554.889 894.33 495.097 894.33C435.304 894.33 386.956 846.572 386.956 787.812C386.956 729.051 435.304 681.293 495.097 681.293ZM512.255 724.228C476.205 724.228 446.865 752.701 446.864 787.964C446.864 823.227 476.204 851.702 512.255 851.702L513.099 851.697C548.762 851.257 577.644 822.951 577.644 787.964C577.644 786.257 577.574 784.565 577.438 782.892C576.892 776.144 572.661 771.667 567.351 768.981C562.105 766.328 555.599 765.282 549.706 765.282C540.348 765.282 531.969 762.387 525.982 757.822C519.998 753.26 516.512 747.135 516.512 740.565C516.512 738.147 516.98 735.808 517.861 733.59C518.659 731.582 518.498 729.342 517.576 727.559C516.631 725.73 514.774 724.228 512.255 724.228Z" fill="white"/>
<path fill-rule="evenodd" clip-rule="evenodd" d="M762.184 681.293C821.976 681.293 870.324 729.051 870.324 787.812C870.324 846.572 821.976 894.33 762.184 894.33C702.391 894.33 654.043 846.572 654.043 787.812C654.043 729.051 702.391 681.293 762.184 681.293ZM744.495 724.228C708.445 724.228 679.105 752.701 679.104 787.964C679.104 823.227 708.445 851.702 744.495 851.702L745.338 851.697C781.001 851.257 809.884 822.952 809.884 787.964C809.884 786.161 809.806 784.374 809.655 782.608C809.079 775.869 804.838 771.407 799.525 768.732C794.277 766.09 787.777 765.052 781.889 765.052C772.531 765.052 764.151 762.157 758.165 757.593C752.181 753.03 748.694 746.906 748.694 740.336C748.694 737.932 749.158 735.606 750.029 733.399C750.809 731.426 750.642 729.23 749.729 727.484C748.823 725.75 747.078 724.319 744.725 724.231L744.495 724.228Z" fill="white"/>
<path fill-rule="evenodd" clip-rule="evenodd" d="M629.739 250C648.805 250.11 665.185 256.862 678.879 270.245C692.685 283.743 699.589 299.898 699.589 318.709V561.599C699.589 585.681 719.106 605.204 743.181 605.204C767.628 605.204 787.294 585.095 786.76 560.646L781.474 318.709C781.474 299.274 788.097 282.962 801.342 269.777C814.588 256.593 831.027 250 850.659 250C869.867 250 886.425 256.592 900.333 269.777C914.239 282.962 921.194 299.274 921.194 318.709L949 781.071C949 858.936 924.416 925.91 875.249 981.996C831.338 1032.09 779.928 1065.8 721.019 1083.14C708.895 1086.71 700.455 1097.88 701.585 1110.47C704.063 1138.09 708.567 1189.93 713.504 1254.51C686.183 1258.13 658.31 1260 630 1260C601.348 1260 573.143 1258.09 545.505 1254.38C550.438 1189.86 554.938 1138.07 557.415 1110.47C558.545 1097.88 550.106 1086.71 537.982 1083.14C479.073 1065.8 427.662 1032.09 383.751 981.996C334.584 925.91 310 858.936 310 781.071L337.807 318.709C337.807 299.274 344.762 282.962 358.668 269.777C372.576 256.593 389.133 250 408.341 250C427.973 250 444.413 256.592 457.659 269.777C470.904 282.962 477.526 299.274 477.526 318.709L472.24 560.646C471.706 585.095 491.373 605.204 515.82 605.204C539.895 605.204 559.411 585.681 559.411 561.599V318.709C559.411 299.898 566.316 283.743 580.122 270.245C593.816 256.862 610.196 250.11 629.262 250H629.739ZM712.527 948.594C705.46 941.485 693.969 941.455 686.863 948.524C673.711 961.609 652.577 969.144 629.906 969.144C607.595 969.143 586.757 961.844 573.561 949.129L572.909 948.491L572.882 948.465L572.854 948.439L572.363 947.974L572.315 947.928L572.266 947.883L571.928 947.587C564.891 941.569 554.359 941.806 547.603 948.277L547.278 948.596C540.433 955.482 540.25 966.48 546.707 973.59L546.751 973.639L546.797 973.686L547.265 974.175L547.32 974.232L547.377 974.289L548.341 975.233L548.355 975.247L548.37 975.262C569.894 996.015 600.643 1005.45 629.906 1005.45C659.63 1005.45 690.895 995.714 712.457 974.261C719.561 967.192 719.594 955.701 712.527 948.594ZM496.457 639.5C413.997 639.5 347 705.643 347 787.418C347 869.193 413.997 935.336 496.457 935.336L497.885 935.329C555.801 934.792 605.87 901.644 630.2 853.505C654.622 902.121 705.307 935.5 763.838 935.5L765.764 935.488C847.177 934.468 913 868.836 913 787.846L912.987 785.936C911.962 705.826 846.536 641.216 765.764 640.203L763.838 640.191C705.48 640.191 654.92 673.375 630.416 721.758C606.167 673.388 555.974 640.047 497.889 639.507L496.457 639.5Z" fill="white"/>
<path d="M1808.71 1099C1719.37 1099 1648.72 1070.58 1596.74 1013.73C1545.58 956.879 1520 873.636 1520 764C1520 690.909 1530.56 632.842 1551.67 589.8C1572.79 546.758 1602.02 516.303 1639.38 498.436C1677.55 479.758 1720.59 470.418 1768.51 470.418C1811.55 470.418 1846.47 475.697 1873.27 486.255C1900.07 496.812 1921.18 514.679 1936.61 539.855C1930.93 522.8 1926.46 506.964 1923.21 492.345C1920.78 476.915 1918.75 459.049 1917.12 438.745C1916.31 418.442 1915.9 392.455 1915.9 360.782V256.018C1915.9 192.673 1943.11 161 1997.52 161C2056.81 161 2086.45 192.673 2086.45 256.018V771.309C2086.45 880.946 2062.08 962.97 2013.36 1017.38C1964.63 1071.79 1896.41 1099 1808.71 1099ZM1800.18 952.818C1834.29 952.818 1860.68 940.636 1879.36 916.273C1898.85 891.909 1908.59 846.43 1908.59 779.836C1908.59 735.17 1904.13 701.467 1895.2 678.727C1887.07 655.176 1874.89 638.933 1858.65 630C1842.41 621.067 1822.92 616.6 1800.18 616.6C1777.44 616.6 1757.95 621.067 1741.71 630C1725.46 638.933 1712.88 655.176 1703.94 678.727C1695.82 701.467 1691.76 735.17 1691.76 779.836C1691.76 846.43 1701.1 891.909 1719.78 916.273C1739.27 940.636 1766.07 952.818 1800.18 952.818Z" fill="#059669"/>
<path d="M2518.37 1099C2437.16 1099 2373.41 1085.6 2327.12 1058.8C2281.64 1032 2249.16 995.049 2229.67 947.945C2210.99 900.842 2201.65 846.836 2201.65 785.927C2201.65 673.855 2226.42 593.455 2275.96 544.727C2325.5 495.188 2392.09 470.418 2475.74 470.418C2526.09 470.418 2570.75 478.945 2609.74 496C2648.72 513.055 2679.17 537.418 2701.1 569.091C2723.02 599.952 2733.99 637.715 2733.99 682.382C2733.99 812.321 2641.41 877.291 2456.25 877.291H2385.59C2392.09 902.467 2402.65 922.364 2417.27 936.982C2432.7 950.788 2459.49 957.691 2497.66 957.691C2518.78 957.691 2535.83 956.473 2548.83 954.036C2561.82 951.6 2574 949.164 2585.37 946.727C2597.55 944.291 2611.36 943.073 2626.79 943.073C2648.72 943.073 2666.18 947.133 2679.17 955.255C2692.16 962.564 2698.66 977.994 2698.66 1001.55C2698.66 1034.84 2684.04 1059.61 2654.81 1075.85C2626.38 1091.28 2580.91 1099 2518.37 1099ZM2377.07 787.145C2383.56 778.212 2390.87 772.527 2398.99 770.091C2407.11 766.842 2419.7 765.218 2436.76 765.218C2484.67 765.218 2517.56 760.752 2535.43 751.818C2554.11 742.073 2563.45 725.018 2563.45 700.655C2563.45 669.794 2554.92 646.242 2537.86 630C2520.81 612.945 2499.29 604.418 2473.3 604.418C2443.25 604.418 2419.7 617.006 2402.65 642.182C2385.59 667.358 2377.07 715.679 2377.07 787.145Z" fill="#059669"/>
<path d="M3020.31 1017.38C3020.31 1071.79 2991.89 1099 2935.04 1099C2907.43 1099 2885.5 1092.1 2869.26 1078.29C2853.02 1064.48 2844.9 1044.18 2844.9 1017.38V256.018C2844.9 226.782 2851.4 203.636 2864.39 186.582C2878.2 169.527 2900.93 161 2932.61 161C2964.28 161 2986.61 169.527 2999.61 186.582C3013.41 203.636 3020.31 226.782 3020.31 256.018V1017.38Z" fill="#059669"/>
<path d="M3264.45 365.655C3234.4 365.655 3209.23 355.909 3188.93 336.418C3168.62 316.927 3158.47 292.97 3158.47 264.545C3158.47 234.497 3168.62 209.727 3188.93 190.236C3209.23 170.745 3234.4 161 3264.45 161C3295.31 161 3320.49 170.745 3339.98 190.236C3360.28 209.727 3370.43 234.497 3370.43 264.545C3370.43 292.97 3360.28 316.927 3339.98 336.418C3320.49 355.909 3295.31 365.655 3264.45 365.655ZM3352.16 1017.38C3352.16 1071.79 3323.74 1099 3266.89 1099C3239.28 1099 3217.35 1092.5 3201.11 1079.51C3184.87 1065.7 3176.74 1044.99 3176.74 1017.38V553.255C3176.74 527.267 3183.24 506.964 3196.23 492.345C3210.04 477.727 3232.78 470.418 3264.45 470.418C3296.12 470.418 3318.46 477.727 3331.45 492.345C3345.26 506.964 3352.16 527.267 3352.16 553.255V1017.38Z" fill="#059669"/>
<path d="M3713.64 1099C3697.4 1099 3680.34 1095.75 3662.48 1089.25C3645.42 1081.95 3629.18 1069.36 3613.75 1051.49C3598.32 1032.81 3584.92 1006.01 3573.55 971.091L3445.64 570.309C3439.96 551.63 3440.77 534.576 3448.08 519.145C3455.39 502.903 3467.17 490.315 3483.41 481.382C3499.65 471.636 3517.52 466.764 3537.01 466.764C3554.87 466.764 3571.12 471.23 3585.73 480.164C3601.16 489.097 3611.72 502.903 3617.41 521.582L3736.79 924.8C3767.65 873.636 3787.95 822.879 3797.69 772.527C3808.25 721.364 3813.53 672.23 3813.53 625.127C3813.53 610.509 3813.12 596.297 3812.31 582.491C3811.5 567.873 3811.09 554.067 3811.09 541.073C3811.09 517.521 3820.43 499.248 3839.11 486.255C3858.6 473.261 3880.12 466.764 3903.68 466.764C3952.4 466.764 3980.42 489.909 3987.73 536.2C3989.35 544.321 3990.57 555.285 3991.38 569.091C3992.2 582.085 3992.6 597.109 3992.6 614.164C3992.6 641.776 3989.76 674.261 3984.07 711.618C3979.2 748.164 3969.46 787.552 3954.84 829.782C3941.03 871.2 3919.92 913.836 3891.49 957.691C3866.32 996.673 3843.58 1026.32 3823.28 1046.62C3803.79 1066.92 3785.11 1080.73 3767.24 1088.04C3749.37 1095.35 3731.51 1099 3713.64 1099Z" fill="#059669"/>
<path d="M4197.11 365.655C4167.06 365.655 4141.89 355.909 4121.58 336.418C4101.28 316.927 4091.13 292.97 4091.13 264.545C4091.13 234.497 4101.28 209.727 4121.58 190.236C4141.89 170.745 4167.06 161 4197.11 161C4227.97 161 4253.15 170.745 4272.64 190.236C4292.94 209.727 4303.09 234.497 4303.09 264.545C4303.09 292.97 4292.94 316.927 4272.64 336.418C4253.15 355.909 4227.97 365.655 4197.11 365.655ZM4284.82 1017.38C4284.82 1071.79 4256.39 1099 4199.55 1099C4171.94 1099 4150.01 1092.5 4133.77 1079.51C4117.52 1065.7 4109.4 1044.99 4109.4 1017.38V553.255C4109.4 527.267 4115.9 506.964 4128.89 492.345C4142.7 477.727 4165.44 470.418 4197.11 470.418C4228.78 470.418 4251.12 477.727 4264.11 492.345C4277.92 506.964 4284.82 527.267 4284.82 553.255V1017.38Z" fill="#059669"/>
<path d="M4481.82 1089.25C4461.52 1089.25 4444.46 1081.13 4430.66 1064.89C4417.66 1048.65 4411.17 1028.75 4411.17 1005.2C4411.17 989.77 4414.82 975.964 4422.13 963.782L4609.73 670.2C4618.66 656.394 4625.97 646.648 4631.65 640.964C4637.34 635.279 4643.43 631.218 4649.93 628.782H4479.38C4424.97 628.782 4397.77 604.012 4397.77 554.473C4397.77 504.933 4424.97 480.164 4479.38 480.164H4780.27C4802.2 480.164 4820.47 488.285 4835.09 504.527C4849.7 520.77 4857.01 540.667 4857.01 564.218C4857.01 579.648 4853.36 593.455 4846.05 605.636L4647.49 901.655C4632.87 924.394 4616.22 937.388 4597.54 940.636H4804.63C4859.04 940.636 4886.25 966.218 4886.25 1017.38C4886.25 1065.3 4859.04 1089.25 4804.63 1089.25H4481.82Z" fill="#059669"/>
<path d="M5266.38 1099C5185.17 1099 5121.42 1085.6 5075.13 1058.8C5029.65 1032 4997.17 995.049 4977.68 947.945C4959 900.842 4949.66 846.836 4949.66 785.927C4949.66 673.855 4974.43 593.455 5023.97 544.727C5073.51 495.188 5140.1 470.418 5223.75 470.418C5274.1 470.418 5318.77 478.945 5357.75 496C5396.73 513.055 5427.18 537.418 5449.11 569.091C5471.04 599.952 5482 637.715 5482 682.382C5482 812.321 5389.42 877.291 5204.26 877.291H5133.6C5140.1 902.467 5150.66 922.364 5165.28 936.982C5180.71 950.788 5207.51 957.691 5245.68 957.691C5266.79 957.691 5283.85 956.473 5296.84 954.036C5309.83 951.6 5322.01 949.164 5333.38 946.727C5345.57 944.291 5359.37 943.073 5374.8 943.073C5396.73 943.073 5414.19 947.133 5427.18 955.255C5440.18 962.564 5446.67 977.994 5446.67 1001.55C5446.67 1034.84 5432.06 1059.61 5402.82 1075.85C5374.4 1091.28 5328.92 1099 5266.38 1099ZM5125.08 787.145C5131.57 778.212 5138.88 772.527 5147 770.091C5155.13 766.842 5167.71 765.218 5184.77 765.218C5232.68 765.218 5265.57 760.752 5283.44 751.818C5302.12 742.073 5311.46 725.018 5311.46 700.655C5311.46 669.794 5302.93 646.242 5285.88 630C5268.82 612.945 5247.3 604.418 5221.31 604.418C5191.26 604.418 5167.71 617.006 5150.66 642.182C5133.6 667.358 5125.08 715.679 5125.08 787.145Z" fill="#059669"/>
</svg>
