<svg width="1260" height="1260" viewBox="0 0 1260 1260" fill="none" xmlns="http://www.w3.org/2000/svg">
<path d="M1260 630C1260 977.939 977.939 1260 630 1260C282.061 1260 0 977.939 0 630C0 282.061 282.061 0 630 0C977.939 0 1260 282.061 1260 630Z" fill="#059669"/>
<path fill-rule="evenodd" clip-rule="evenodd" d="M495.097 681.293C554.889 681.293 603.237 729.051 603.237 787.812C603.237 846.572 554.889 894.33 495.097 894.33C435.304 894.33 386.956 846.572 386.956 787.812C386.956 729.051 435.304 681.293 495.097 681.293ZM512.255 724.228C476.205 724.228 446.865 752.701 446.864 787.964C446.864 823.227 476.204 851.702 512.255 851.702L513.099 851.697C548.762 851.257 577.644 822.951 577.644 787.964C577.644 786.257 577.574 784.565 577.438 782.892C576.892 776.144 572.661 771.667 567.351 768.981C562.105 766.328 555.599 765.282 549.706 765.282C540.348 765.282 531.969 762.387 525.982 757.822C519.998 753.26 516.512 747.135 516.512 740.565C516.512 738.147 516.98 735.808 517.861 733.59C518.659 731.582 518.498 729.342 517.576 727.559C516.631 725.73 514.774 724.228 512.255 724.228Z" fill="white"/>
<path fill-rule="evenodd" clip-rule="evenodd" d="M762.184 681.293C821.976 681.293 870.324 729.051 870.324 787.812C870.324 846.572 821.976 894.33 762.184 894.33C702.391 894.33 654.043 846.572 654.043 787.812C654.043 729.051 702.391 681.293 762.184 681.293ZM744.495 724.228C708.445 724.228 679.105 752.701 679.104 787.964C679.104 823.227 708.445 851.702 744.495 851.702L745.338 851.697C781.001 851.257 809.884 822.952 809.884 787.964C809.884 786.161 809.806 784.374 809.655 782.608C809.079 775.869 804.838 771.407 799.525 768.732C794.277 766.09 787.777 765.052 781.889 765.052C772.531 765.052 764.151 762.157 758.165 757.593C752.181 753.03 748.694 746.906 748.694 740.336C748.694 737.932 749.158 735.606 750.029 733.399C750.809 731.426 750.642 729.23 749.729 727.484C748.823 725.75 747.078 724.319 744.725 724.231L744.495 724.228Z" fill="white"/>
<path fill-rule="evenodd" clip-rule="evenodd" d="M629.739 250C648.805 250.11 665.185 256.862 678.879 270.245C692.685 283.743 699.589 299.898 699.589 318.709V561.599C699.589 585.681 719.106 605.204 743.181 605.204C767.628 605.204 787.294 585.095 786.76 560.646L781.474 318.709C781.474 299.274 788.097 282.962 801.342 269.777C814.588 256.593 831.027 250 850.659 250C869.867 250 886.425 256.592 900.333 269.777C914.239 282.962 921.194 299.274 921.194 318.709L949 781.071C949 858.936 924.416 925.91 875.249 981.996C831.338 1032.09 779.928 1065.8 721.019 1083.14C708.895 1086.71 700.455 1097.88 701.585 1110.47C704.063 1138.09 708.567 1189.93 713.504 1254.51C686.183 1258.13 658.31 1260 630 1260C601.348 1260 573.143 1258.09 545.505 1254.38C550.438 1189.86 554.938 1138.07 557.415 1110.47C558.545 1097.88 550.106 1086.71 537.982 1083.14C479.073 1065.8 427.662 1032.09 383.751 981.996C334.584 925.91 310 858.936 310 781.071L337.807 318.709C337.807 299.274 344.762 282.962 358.668 269.777C372.576 256.593 389.133 250 408.341 250C427.973 250 444.413 256.592 457.659 269.777C470.904 282.962 477.526 299.274 477.526 318.709L472.24 560.646C471.706 585.095 491.373 605.204 515.82 605.204C539.895 605.204 559.411 585.681 559.411 561.599V318.709C559.411 299.898 566.316 283.743 580.122 270.245C593.816 256.862 610.196 250.11 629.262 250H629.739ZM712.527 948.594C705.46 941.485 693.969 941.455 686.863 948.524C673.711 961.609 652.577 969.144 629.906 969.144C607.595 969.143 586.757 961.844 573.561 949.129L572.909 948.491L572.882 948.465L572.854 948.439L572.363 947.974L572.315 947.928L572.266 947.883L571.928 947.587C564.891 941.569 554.359 941.806 547.603 948.277L547.278 948.596C540.433 955.482 540.25 966.48 546.707 973.59L546.751 973.639L546.797 973.686L547.265 974.175L547.32 974.232L547.377 974.289L548.341 975.233L548.355 975.247L548.37 975.262C569.894 996.015 600.643 1005.45 629.906 1005.45C659.63 1005.45 690.895 995.714 712.457 974.261C719.561 967.192 719.594 955.701 712.527 948.594ZM496.457 639.5C413.997 639.5 347 705.643 347 787.418C347 869.193 413.997 935.336 496.457 935.336L497.885 935.329C555.801 934.792 605.87 901.644 630.2 853.505C654.622 902.121 705.307 935.5 763.838 935.5L765.764 935.488C847.177 934.468 913 868.836 913 787.846L912.987 785.936C911.962 705.826 846.536 641.216 765.764 640.203L763.838 640.191C705.48 640.191 654.92 673.375 630.416 721.758C606.167 673.388 555.974 640.047 497.889 639.507L496.457 639.5Z" fill="white"/>
</svg>
